<?xml version="1.0" encoding="UTF-8" standalone="no" ?>
<!DOCTYPE svg PUBLIC "-//W3C//DTD SVG 1.1//EN" "http://www.w3.org/Graphics/SVG/1.1/DTD/svg11.dtd">
<svg xmlns="http://www.w3.org/2000/svg" xmlns:xlink="http://www.w3.org/1999/xlink" version="1.1" width="1080" height="1080" viewBox="0 0 1080 1080" xml:space="preserve">
<desc>Created with Fabric.js 5.2.4</desc>
<defs>
</defs>
<g transform="matrix(1 0 0 1 540 540)" id="14cf153f-56f7-495a-a0a5-6bcf5a672ce1"  >
<rect style="stroke: none; stroke-width: 1; stroke-dasharray: none; stroke-linecap: butt; stroke-dashoffset: 0; stroke-linejoin: miter; stroke-miterlimit: 4; fill: rgb(255,255,255); fill-rule: nonzero; opacity: 1; visibility: hidden;" vector-effect="non-scaling-stroke"  x="-540" y="-540" rx="0" ry="0" width="1080" height="1080" />
</g>
<g transform="matrix(1 0 0 1 540 540)" id="23a1ae1a-97c8-4ac7-81ac-5b9c80f5e311"  >
</g>
<g transform="matrix(16.88 0 0 16.88 540 540)"  >
<g style=""   >
		<g transform="matrix(1 0 0 1 8 10)" id="delivery-bike"  >
<path style="stroke: none; stroke-width: 1; stroke-dasharray: none; stroke-linecap: butt; stroke-dashoffset: 0; stroke-linejoin: miter; stroke-miterlimit: 4; fill: rgb(120,185,235); fill-rule: nonzero; opacity: 1;" vector-effect="non-scaling-stroke"  transform=" translate(-40, -42)" d="M 48.41 29.41 C 48.7898588978177 29.03953880004171 49.002823066488496 28.530590532540316 49 28 C 48.99670519888792 26.896798133762427 48.10320186623757 26.003294801112073 47 26 L 46 26 L 46 25 C 46.00329480111208 23.896798133762427 46.896798133762424 23.003294801112077 48 23 L 56 23 L 56 31 L 46 31 L 46 30 L 47 30 C 47.530590532540316 30.002823066488496 48.03953880004171 29.789858897817698 48.41 29.41 z M 53 58 C 53.71416480071621 57.99926790896719 54.373747883910355 57.61778086540788 54.73051323255093 56.99911263077104 C 55.08727858119151 56.380444396134195 55.087082963208374 55.618484968229325 54.73 55 L 57.9 55 C 57.96888676157807 55.32881533472848 58.00241071981841 55.66405491713187 58 56 C 58 58.76142374915397 55.76142374915397 61 53 61 C 50.23857625084603 61 48 58.76142374915397 48 56 C 47.99758928018159 55.66405491713187 48.03111323842193 55.32881533472848 48.1 55 L 51.27 55 C 50.912917036791626 55.618484968229325 50.91272141880849 56.380444396134195 51.26948676744907 56.99911263077104 C 51.626252116089645 57.61778086540788 52.28583519928379 57.99926790896719 53 58 z M 61 52 L 61 55 L 32 55 L 32 51 C 32 47.68629150101524 29.31370849898476 45 26 45 L 36 45 L 36 51 L 43 51 C 45.20913899932317 51 47 49.20913899932317 47 47 L 47 31 L 51 31 L 53 46 L 55 46 C 58.31370849898476 46 61 48.68629150101524 61 52 z M 24 58 C 24.714164800716212 57.99926790896719 25.373747883910358 57.61778086540789 25.730513232550937 56.99911263077104 C 26.087278581191516 56.380444396134195 26.08708296320838 55.618484968229325 25.73 55 L 28.9 55 C 28.96888676157807 55.32881533472848 29.002410719818407 55.66405491713187 29 56 C 29 58.76142374915397 26.761423749153966 61 24 61 C 21.238576250846034 61 19 58.76142374915397 19 56 C 18.997589280181593 55.66405491713187 19.03111323842193 55.32881533472848 19.1 55 L 22.270000000000003 55 C 21.912917036791622 55.618484968229325 21.912721418808488 56.380444396134195 22.269486767449067 56.99911263077104 C 22.626252116089645 57.61778086540788 23.28583519928379 57.99926790896719 24 58 z" stroke-linecap="round" />
</g>
		<g transform="matrix(1 0 0 1 -7.5 4)" id="delivery-bike"  >
<path style="stroke: none; stroke-width: 1; stroke-dasharray: none; stroke-linecap: butt; stroke-dashoffset: 0; stroke-linejoin: miter; stroke-miterlimit: 4; fill: rgb(120,185,235); fill-rule: nonzero; opacity: 1;" vector-effect="non-scaling-stroke"  transform=" translate(-24.5, -36)" d="M 36.5 40 C 37.88071187457698 40 39 41.11928812542302 39 42.5 C 39 43.88071187457698 37.88071187457698 45 36.5 45 L 21 45 L 21 40 z M 10 39 L 14 39 L 14 41 C 14 41.5522847498308 13.552284749830793 42 13 42 L 11 42 C 10.447715250169207 42 10 41.5522847498308 10 41 z M 10 27 L 14 27 L 14 29 C 14 29.552284749830793 13.552284749830793 30 13 30 L 11 30 C 10.447715250169207 30 10 29.552284749830793 10 29 z" stroke-linecap="round" />
</g>
		<g transform="matrix(1 0 0 1 -16 9)" id="delivery-bike"  >
<path style="stroke: none; stroke-width: 1; stroke-dasharray: none; stroke-linecap: butt; stroke-dashoffset: 0; stroke-linejoin: miter; stroke-miterlimit: 4; fill: rgb(120,185,235); fill-rule: nonzero; opacity: 1;" vector-effect="non-scaling-stroke"  transform=" translate(-16, -41)" d="M 21 45 L 22 45 C 19.458002700766905 44.997196833230745 17.191947912965077 46.60148340866567 16.35 49 L 12 49 L 12 45 z M 10 33 L 14 33 L 14 35 C 14 35.5522847498308 13.552284749830793 36 13 36 L 11 36 C 10.447715250169207 36 10 35.5522847498308 10 35 z" stroke-linecap="round" />
</g>
		<g transform="matrix(1 0 0 1 0 10)" id="delivery-bike"  >
<path style="stroke: none; stroke-width: 1; stroke-dasharray: none; stroke-linecap: butt; stroke-dashoffset: 0; stroke-linejoin: miter; stroke-miterlimit: 4; fill: rgb(0,109,240); fill-rule: nonzero; opacity: 1;" vector-effect="non-scaling-stroke"  transform=" translate(-32, -42)" d="M 55 45 L 53.88 45 L 52.14 32 L 56 32 C 56.5522847498308 32 57 31.552284749830793 57 31 L 57 30.39 L 58.68 30.95 C 58.783875549537115 30.981233816861494 58.891547668843415 30.9980575855031 59 31 C 59.2090964925146 31.003017464307682 59.413217107198065 30.93615036639413 59.58 30.81 C 59.844416189103164 30.625261762320335 60.00137483362828 30.322555805021896 60 30 L 60 24 C 60.00137483362828 23.677444194978104 59.844416189103164 23.374738237679665 59.58 23.19 C 59.31989928494124 23.001488319431072 58.98507298539756 22.94940422839094 58.68 23.05 L 57 23.61 L 57 23 C 57 22.447715250169207 56.5522847498308 22 56 22 L 48 22 C 46.34519720064364 22.004942201668115 45.00494220166811 23.345197200643643 45 25.000000000000004 L 41 25 C 40.4477152501692 25 40 25.447715250169207 40 26 L 40 30 C 40 30.552284749830793 40.4477152501692 31 41 31 L 45 31 C 45 31.552284749830793 45.4477152501692 32 46 32 L 46 47 C 45.995057798331885 48.65480279935636 44.65480279935636 49.995057798331885 43 50 L 37 50 L 37 45.95 C 38.818909670613316 45.69441606374785 40.12889525814191 44.073439773614226 39.99709355837681 42.24139614687937 C 39.86529185861171 40.40935252014451 38.33676361266873 38.992585858318186 36.5 39 L 22 39 L 22 27 C 22 26.447715250169207 21.552284749830793 26 21 26 L 3 26 C 2.4477152501692068 26 2 26.447715250169207 2 27 L 2 45 C 2 45.5522847498308 2.4477152501692068 46 3 46 L 11 46 L 11 49 C 11 49.5522847498308 11.447715250169207 50 12 50 L 15.08 50 C 15.028132061794636 50.330836399833885 15.001388951284351 50.66512528121243 15 51 L 15 55 C 15 55.5522847498308 15.447715250169207 56 16 56 L 18 56 C 18 59.31370849898476 20.68629150101524 62 24 62 C 27.31370849898476 62 30 59.31370849898476 30 56 L 47 56 C 47 59.31370849898476 49.68629150101524 62 53 62 C 56.31370849898476 62 59 59.31370849898476 59 56 L 61 56 C 61.5522847498308 56 62 55.5522847498308 62 55 L 62 52 C 61.99559136402768 48.13583434119646 58.86416565880354 45.00440863597232 55 45 Z M 57 25.72 L 58 25.39 L 58 28.61 L 57 28.28 Z M 48 24 L 55 24 L 55 30 L 49.22 30 C 49.71993329405038 29.4536942932532 49.99806873427898 28.74052649779525 50 28 C 49.995057798331885 26.34519720064364 48.65480279935636 25.00494220166811 47 25 C 47 24.447715250169207 47.4477152501692 24 48 24 Z M 42 29 L 42 27 L 47 27 C 47.5522847498308 27 48 27.447715250169207 48 28 C 48 28.552284749830793 47.5522847498308 29 47 29 Z M 22 41 L 36.5 41 C 37.32842712474619 41 38 41.67157287525381 38 42.5 C 38 43.32842712474619 37.32842712474619 44 36.5 44 L 22 44 Z M 11 28 L 13 28 L 13 29 L 11 29 Z M 4 28 L 9 28 L 9 29 C 9.003294801112075 30.103201866237573 9.896798133762427 30.996705198887927 11 31 L 13 31 C 14.103201866237573 30.996705198887927 14.996705198887925 30.103201866237573 15 29 L 15 28 L 20 28 L 20 32 L 4 32 Z M 13 34 L 13 35 L 11 35 L 11 34 Z M 4 34 L 9 34 L 9 35 C 9.003294801112075 36.103201866237576 9.896798133762427 36.99670519888792 11 37 L 13 37 C 14.103201866237573 36.99670519888792 14.996705198887925 36.103201866237576 15 35 L 15 34 L 20 34 L 20 38 L 4 38 Z M 13 40 L 13 41 L 11 41 L 11 40 Z M 4 44 L 4 40 L 9 40 L 9 41 C 9.003294801112075 42.103201866237576 9.896798133762427 42.99670519888792 11 43 L 13 43 C 14.103201866237573 42.99670519888792 14.996705198887925 42.103201866237576 15 41 L 15 40 L 20 40 L 20 44 Z M 15.68 48 L 13 48 L 13 46 L 17.11 46 C 16.51842627372426 46.57652553515356 16.03420606938686 47.253756590170894 15.68 48 Z M 24 60 C 21.790861000676827 60 20 58.20913899932317 20 56 L 21 56 C 21 57.65685424949238 22.34314575050762 59 24 59 C 25.65685424949238 59 27 57.65685424949238 27 56 L 28 56 C 28 58.20913899932317 26.209138999323173 60 24 60 Z M 23 56 L 25 56 C 25 56.5522847498308 24.552284749830793 57 24 57 C 23.447715250169207 57 23 56.5522847498308 23 56 Z M 31 54 L 17 54 L 17 51 C 17 48.23857625084603 19.238576250846034 46 22 46 L 26 46 C 28.761423749153966 46 31 48.23857625084603 31 51 Z M 53 60 C 50.79086100067683 60 49 58.20913899932317 49 56 L 50 56 C 50 57.65685424949238 51.34314575050762 59 53 59 C 54.65685424949238 59 56 57.65685424949238 56 56 L 57 56 C 57 58.20913899932317 55.20913899932317 60 53 60 Z M 52 56 L 54 56 C 54 56.5522847498308 53.5522847498308 57 53 57 C 52.4477152501692 57 52 56.5522847498308 52 56 Z M 60 54 L 33 54 L 33 51 C 33.001045789856164 49.116718317053575 32.23994558267679 47.31316332373752 30.89 46 L 35 46 L 35 51 C 35 51.5522847498308 35.4477152501692 52 36 52 L 43 52 C 45.76142374915397 52 48 49.76142374915397 48 47 L 48 32 L 50.12 32 L 52.01 46.13 C 52.075188881924305 46.627202064770195 52.49854321518789 46.99924072127455 53 47 L 55 47 C 57.76142374915397 47 60 49.23857625084603 60 52 Z" stroke-linecap="round" />
</g>
		<g transform="matrix(1 0 0 1 -8 17)" id="delivery-bike"  >
<rect style="stroke: none; stroke-width: 1; stroke-dasharray: none; stroke-linecap: butt; stroke-dashoffset: 0; stroke-linejoin: miter; stroke-miterlimit: 4; fill: rgb(0,109,240); fill-rule: nonzero; opacity: 1;" vector-effect="non-scaling-stroke"  x="-3" y="-1" rx="0" ry="0" width="6" height="2" />
</g>
		<g transform="matrix(1 0 0 1 -8 20)" id="delivery-bike"  >
<rect style="stroke: none; stroke-width: 1; stroke-dasharray: none; stroke-linecap: butt; stroke-dashoffset: 0; stroke-linejoin: miter; stroke-miterlimit: 4; fill: rgb(0,109,240); fill-rule: nonzero; opacity: 1;" vector-effect="non-scaling-stroke"  x="-3" y="-1" rx="0" ry="0" width="6" height="2" />
</g>
		<g transform="matrix(1 0 0 1 0 -17)" id="delivery-bike"  >
<path style="stroke: none; stroke-width: 1; stroke-dasharray: none; stroke-linecap: butt; stroke-dashoffset: 0; stroke-linejoin: miter; stroke-miterlimit: 4; fill: rgb(0,109,240); fill-rule: nonzero; opacity: 1;" vector-effect="non-scaling-stroke"  transform=" translate(-32, -15)" d="M 32 28 C 39.179701747800316 28 45 22.179701747800316 45 15 C 45 7.820298252199684 39.179701747800316 2 32 2 C 24.820298252199684 2 19 7.820298252199684 19 14.999999999999998 C 19.008266019044065 22.176275061898345 24.82372493810165 27.991733980955928 31.999999999999993 28 Z M 21.051 14 C 21.250858508729696 11.781119019123093 22.123028118644683 9.676050448632285 23.551 7.966 L 24.927999999999997 9.343 L 26.342 7.929 L 24.966 6.552 C 26.675927295785876 5.123667228662157 28.78100737940268 4.251143978889928 30.999999999999996 4.051000000000002 L 31 6 L 33 6 L 33 4.051 C 35.218880980876904 4.250858508729698 37.32394955136771 5.123028118644684 39.034 6.551 L 37.657 7.929 L 39.071 9.343 L 40.448 7.966 C 41.87633277133784 9.675927295785874 42.74885602111007 11.781007379402677 42.949 13.999999999999993 L 41 14 L 41 16 L 42.949 16 C 42.7491414912703 18.218880980876907 41.87697188135532 20.32394955136771 40.449 22.034 L 39.071999999999996 20.657 L 37.657999999999994 22.071 L 39.035 23.448 C 37.32479875142738 24.87651979867658 35.21934200809034 25.749054565053704 33 25.949 L 33 24 L 31 24 L 31 25.949 C 28.781119019123093 25.749141491270304 26.676050448632285 24.876971881355317 24.966 23.448999999999998 L 26.343 22.072000000000003 L 24.929 20.658 L 23.552 22.035 C 22.12348020132342 20.32479875142738 21.250945434946296 18.219342008090337 21.050999999999995 16 L 23 16 L 23 14 Z" stroke-linecap="round" />
</g>
		<g transform="matrix(1 0 0 1 -0.5 -19.35)" id="delivery-bike"  >
<path style="stroke: none; stroke-width: 1; stroke-dasharray: none; stroke-linecap: butt; stroke-dashoffset: 0; stroke-linejoin: miter; stroke-miterlimit: 4; fill: rgb(0,109,240); fill-rule: nonzero; opacity: 1;" vector-effect="non-scaling-stroke"  transform=" translate(-31.5, -12.65)" d="M 32 16 C 32.265194813478814 15.999943362594506 32.51950726864254 15.894549374810952 32.707 15.707 L 36.707 11.707 L 35.293 10.293000000000001 L 32 13.586 L 27.707 9.293 L 26.293 10.706999999999999 L 31.293 15.706999999999999 C 31.480492731357458 15.894549374810952 31.734805186521186 15.999943362594506 32 16 Z" stroke-linecap="round" />
</g>
		<g transform="matrix(1 0 0 1 -22 -22)" id="delivery-bike"  >
<rect style="stroke: none; stroke-width: 1; stroke-dasharray: none; stroke-linecap: butt; stroke-dashoffset: 0; stroke-linejoin: miter; stroke-miterlimit: 4; fill: rgb(0,109,240); fill-rule: nonzero; opacity: 1;" vector-effect="non-scaling-stroke"  x="-6" y="-1" rx="0" ry="0" width="12" height="2" />
</g>
		<g transform="matrix(1 0 0 1 -21 -17)" id="delivery-bike"  >
<rect style="stroke: none; stroke-width: 1; stroke-dasharray: none; stroke-linecap: butt; stroke-dashoffset: 0; stroke-linejoin: miter; stroke-miterlimit: 4; fill: rgb(0,109,240); fill-rule: nonzero; opacity: 1;" vector-effect="non-scaling-stroke"  x="-5" y="-1" rx="0" ry="0" width="10" height="2" />
</g>
		<g transform="matrix(1 0 0 1 -19.5 -12)" id="delivery-bike"  >
<rect style="stroke: none; stroke-width: 1; stroke-dasharray: none; stroke-linecap: butt; stroke-dashoffset: 0; stroke-linejoin: miter; stroke-miterlimit: 4; fill: rgb(0,109,240); fill-rule: nonzero; opacity: 1;" vector-effect="non-scaling-stroke"  x="-3.5" y="-1" rx="0" ry="0" width="7" height="2" />
</g>
</g>
</g>
<g transform="matrix(16.88 0 0 16.88 540 540)"  >
<g style=""   >
		<g transform="matrix(1 0 0 1 8 10)" id="delivery-bike"  >
<path style="stroke: none; stroke-width: 1; stroke-dasharray: none; stroke-linecap: butt; stroke-dashoffset: 0; stroke-linejoin: miter; stroke-miterlimit: 4; fill: rgb(120,185,235); fill-rule: nonzero; opacity: 1;" vector-effect="non-scaling-stroke"  transform=" translate(-40, -42)" d="M 48.41 29.41 C 48.7898588978177 29.03953880004171 49.002823066488496 28.530590532540316 49 28 C 48.99670519888792 26.896798133762427 48.10320186623757 26.003294801112073 47 26 L 46 26 L 46 25 C 46.00329480111208 23.896798133762427 46.896798133762424 23.003294801112077 48 23 L 56 23 L 56 31 L 46 31 L 46 30 L 47 30 C 47.530590532540316 30.002823066488496 48.03953880004171 29.789858897817698 48.41 29.41 z M 53 58 C 53.71416480071621 57.99926790896719 54.373747883910355 57.61778086540788 54.73051323255093 56.99911263077104 C 55.08727858119151 56.380444396134195 55.087082963208374 55.618484968229325 54.73 55 L 57.9 55 C 57.96888676157807 55.32881533472848 58.00241071981841 55.66405491713187 58 56 C 58 58.76142374915397 55.76142374915397 61 53 61 C 50.23857625084603 61 48 58.76142374915397 48 56 C 47.99758928018159 55.66405491713187 48.03111323842193 55.32881533472848 48.1 55 L 51.27 55 C 50.912917036791626 55.618484968229325 50.91272141880849 56.380444396134195 51.26948676744907 56.99911263077104 C 51.626252116089645 57.61778086540788 52.28583519928379 57.99926790896719 53 58 z M 61 52 L 61 55 L 32 55 L 32 51 C 32 47.68629150101524 29.31370849898476 45 26 45 L 36 45 L 36 51 L 43 51 C 45.20913899932317 51 47 49.20913899932317 47 47 L 47 31 L 51 31 L 53 46 L 55 46 C 58.31370849898476 46 61 48.68629150101524 61 52 z M 24 58 C 24.714164800716212 57.99926790896719 25.373747883910358 57.61778086540789 25.730513232550937 56.99911263077104 C 26.087278581191516 56.380444396134195 26.08708296320838 55.618484968229325 25.73 55 L 28.9 55 C 28.96888676157807 55.32881533472848 29.002410719818407 55.66405491713187 29 56 C 29 58.76142374915397 26.761423749153966 61 24 61 C 21.238576250846034 61 19 58.76142374915397 19 56 C 18.997589280181593 55.66405491713187 19.03111323842193 55.32881533472848 19.1 55 L 22.270000000000003 55 C 21.912917036791622 55.618484968229325 21.912721418808488 56.380444396134195 22.269486767449067 56.99911263077104 C 22.626252116089645 57.61778086540788 23.28583519928379 57.99926790896719 24 58 z" stroke-linecap="round" />
</g>
		<g transform="matrix(1 0 0 1 -7.5 4)" id="delivery-bike"  >
<path style="stroke: none; stroke-width: 1; stroke-dasharray: none; stroke-linecap: butt; stroke-dashoffset: 0; stroke-linejoin: miter; stroke-miterlimit: 4; fill: rgb(120,185,235); fill-rule: nonzero; opacity: 1;" vector-effect="non-scaling-stroke"  transform=" translate(-24.5, -36)" d="M 36.5 40 C 37.88071187457698 40 39 41.11928812542302 39 42.5 C 39 43.88071187457698 37.88071187457698 45 36.5 45 L 21 45 L 21 40 z M 10 39 L 14 39 L 14 41 C 14 41.5522847498308 13.552284749830793 42 13 42 L 11 42 C 10.447715250169207 42 10 41.5522847498308 10 41 z M 10 27 L 14 27 L 14 29 C 14 29.552284749830793 13.552284749830793 30 13 30 L 11 30 C 10.447715250169207 30 10 29.552284749830793 10 29 z" stroke-linecap="round" />
</g>
		<g transform="matrix(1 0 0 1 -16 9)" id="delivery-bike"  >
<path style="stroke: none; stroke-width: 1; stroke-dasharray: none; stroke-linecap: butt; stroke-dashoffset: 0; stroke-linejoin: miter; stroke-miterlimit: 4; fill: rgb(120,185,235); fill-rule: nonzero; opacity: 1;" vector-effect="non-scaling-stroke"  transform=" translate(-16, -41)" d="M 21 45 L 22 45 C 19.458002700766905 44.997196833230745 17.191947912965077 46.60148340866567 16.35 49 L 12 49 L 12 45 z M 10 33 L 14 33 L 14 35 C 14 35.5522847498308 13.552284749830793 36 13 36 L 11 36 C 10.447715250169207 36 10 35.5522847498308 10 35 z" stroke-linecap="round" />
</g>
		<g transform="matrix(1 0 0 1 0 10)" id="delivery-bike"  >
<path style="stroke: none; stroke-width: 1; stroke-dasharray: none; stroke-linecap: butt; stroke-dashoffset: 0; stroke-linejoin: miter; stroke-miterlimit: 4; fill: rgb(0,109,240); fill-rule: nonzero; opacity: 1;" vector-effect="non-scaling-stroke"  transform=" translate(-32, -42)" d="M 55 45 L 53.88 45 L 52.14 32 L 56 32 C 56.5522847498308 32 57 31.552284749830793 57 31 L 57 30.39 L 58.68 30.95 C 58.783875549537115 30.981233816861494 58.891547668843415 30.9980575855031 59 31 C 59.2090964925146 31.003017464307682 59.413217107198065 30.93615036639413 59.58 30.81 C 59.844416189103164 30.625261762320335 60.00137483362828 30.322555805021896 60 30 L 60 24 C 60.00137483362828 23.677444194978104 59.844416189103164 23.374738237679665 59.58 23.19 C 59.31989928494124 23.001488319431072 58.98507298539756 22.94940422839094 58.68 23.05 L 57 23.61 L 57 23 C 57 22.447715250169207 56.5522847498308 22 56 22 L 48 22 C 46.34519720064364 22.004942201668115 45.00494220166811 23.345197200643643 45 25.000000000000004 L 41 25 C 40.4477152501692 25 40 25.447715250169207 40 26 L 40 30 C 40 30.552284749830793 40.4477152501692 31 41 31 L 45 31 C 45 31.552284749830793 45.4477152501692 32 46 32 L 46 47 C 45.995057798331885 48.65480279935636 44.65480279935636 49.995057798331885 43 50 L 37 50 L 37 45.95 C 38.818909670613316 45.69441606374785 40.12889525814191 44.073439773614226 39.99709355837681 42.24139614687937 C 39.86529185861171 40.40935252014451 38.33676361266873 38.992585858318186 36.5 39 L 22 39 L 22 27 C 22 26.447715250169207 21.552284749830793 26 21 26 L 3 26 C 2.4477152501692068 26 2 26.447715250169207 2 27 L 2 45 C 2 45.5522847498308 2.4477152501692068 46 3 46 L 11 46 L 11 49 C 11 49.5522847498308 11.447715250169207 50 12 50 L 15.08 50 C 15.028132061794636 50.330836399833885 15.001388951284351 50.66512528121243 15 51 L 15 55 C 15 55.5522847498308 15.447715250169207 56 16 56 L 18 56 C 18 59.31370849898476 20.68629150101524 62 24 62 C 27.31370849898476 62 30 59.31370849898476 30 56 L 47 56 C 47 59.31370849898476 49.68629150101524 62 53 62 C 56.31370849898476 62 59 59.31370849898476 59 56 L 61 56 C 61.5522847498308 56 62 55.5522847498308 62 55 L 62 52 C 61.99559136402768 48.13583434119646 58.86416565880354 45.00440863597232 55 45 Z M 57 25.72 L 58 25.39 L 58 28.61 L 57 28.28 Z M 48 24 L 55 24 L 55 30 L 49.22 30 C 49.71993329405038 29.4536942932532 49.99806873427898 28.74052649779525 50 28 C 49.995057798331885 26.34519720064364 48.65480279935636 25.00494220166811 47 25 C 47 24.447715250169207 47.4477152501692 24 48 24 Z M 42 29 L 42 27 L 47 27 C 47.5522847498308 27 48 27.447715250169207 48 28 C 48 28.552284749830793 47.5522847498308 29 47 29 Z M 22 41 L 36.5 41 C 37.32842712474619 41 38 41.67157287525381 38 42.5 C 38 43.32842712474619 37.32842712474619 44 36.5 44 L 22 44 Z M 11 28 L 13 28 L 13 29 L 11 29 Z M 4 28 L 9 28 L 9 29 C 9.003294801112075 30.103201866237573 9.896798133762427 30.996705198887927 11 31 L 13 31 C 14.103201866237573 30.996705198887927 14.996705198887925 30.103201866237573 15 29 L 15 28 L 20 28 L 20 32 L 4 32 Z M 13 34 L 13 35 L 11 35 L 11 34 Z M 4 34 L 9 34 L 9 35 C 9.003294801112075 36.103201866237576 9.896798133762427 36.99670519888792 11 37 L 13 37 C 14.103201866237573 36.99670519888792 14.996705198887925 36.103201866237576 15 35 L 15 34 L 20 34 L 20 38 L 4 38 Z M 13 40 L 13 41 L 11 41 L 11 40 Z M 4 44 L 4 40 L 9 40 L 9 41 C 9.003294801112075 42.103201866237576 9.896798133762427 42.99670519888792 11 43 L 13 43 C 14.103201866237573 42.99670519888792 14.996705198887925 42.103201866237576 15 41 L 15 40 L 20 40 L 20 44 Z M 15.68 48 L 13 48 L 13 46 L 17.11 46 C 16.51842627372426 46.57652553515356 16.03420606938686 47.253756590170894 15.68 48 Z M 24 60 C 21.790861000676827 60 20 58.20913899932317 20 56 L 21 56 C 21 57.65685424949238 22.34314575050762 59 24 59 C 25.65685424949238 59 27 57.65685424949238 27 56 L 28 56 C 28 58.20913899932317 26.209138999323173 60 24 60 Z M 23 56 L 25 56 C 25 56.5522847498308 24.552284749830793 57 24 57 C 23.447715250169207 57 23 56.5522847498308 23 56 Z M 31 54 L 17 54 L 17 51 C 17 48.23857625084603 19.238576250846034 46 22 46 L 26 46 C 28.761423749153966 46 31 48.23857625084603 31 51 Z M 53 60 C 50.79086100067683 60 49 58.20913899932317 49 56 L 50 56 C 50 57.65685424949238 51.34314575050762 59 53 59 C 54.65685424949238 59 56 57.65685424949238 56 56 L 57 56 C 57 58.20913899932317 55.20913899932317 60 53 60 Z M 52 56 L 54 56 C 54 56.5522847498308 53.5522847498308 57 53 57 C 52.4477152501692 57 52 56.5522847498308 52 56 Z M 60 54 L 33 54 L 33 51 C 33.001045789856164 49.116718317053575 32.23994558267679 47.31316332373752 30.89 46 L 35 46 L 35 51 C 35 51.5522847498308 35.4477152501692 52 36 52 L 43 52 C 45.76142374915397 52 48 49.76142374915397 48 47 L 48 32 L 50.12 32 L 52.01 46.13 C 52.075188881924305 46.627202064770195 52.49854321518789 46.99924072127455 53 47 L 55 47 C 57.76142374915397 47 60 49.23857625084603 60 52 Z" stroke-linecap="round" />
</g>
		<g transform="matrix(1 0 0 1 -8 17)" id="delivery-bike"  >
<rect style="stroke: none; stroke-width: 1; stroke-dasharray: none; stroke-linecap: butt; stroke-dashoffset: 0; stroke-linejoin: miter; stroke-miterlimit: 4; fill: rgb(0,109,240); fill-rule: nonzero; opacity: 1;" vector-effect="non-scaling-stroke"  x="-3" y="-1" rx="0" ry="0" width="6" height="2" />
</g>
		<g transform="matrix(1 0 0 1 -8 20)" id="delivery-bike"  >
<rect style="stroke: none; stroke-width: 1; stroke-dasharray: none; stroke-linecap: butt; stroke-dashoffset: 0; stroke-linejoin: miter; stroke-miterlimit: 4; fill: rgb(0,109,240); fill-rule: nonzero; opacity: 1;" vector-effect="non-scaling-stroke"  x="-3" y="-1" rx="0" ry="0" width="6" height="2" />
</g>
		<g transform="matrix(1 0 0 1 0 -17)" id="delivery-bike"  >
<path style="stroke: none; stroke-width: 1; stroke-dasharray: none; stroke-linecap: butt; stroke-dashoffset: 0; stroke-linejoin: miter; stroke-miterlimit: 4; fill: rgb(0,109,240); fill-rule: nonzero; opacity: 1;" vector-effect="non-scaling-stroke"  transform=" translate(-32, -15)" d="M 32 28 C 39.179701747800316 28 45 22.179701747800316 45 15 C 45 7.820298252199684 39.179701747800316 2 32 2 C 24.820298252199684 2 19 7.820298252199684 19 14.999999999999998 C 19.008266019044065 22.176275061898345 24.82372493810165 27.991733980955928 31.999999999999993 28 Z M 21.051 14 C 21.250858508729696 11.781119019123093 22.123028118644683 9.676050448632285 23.551 7.966 L 24.927999999999997 9.343 L 26.342 7.929 L 24.966 6.552 C 26.675927295785876 5.123667228662157 28.78100737940268 4.251143978889928 30.999999999999996 4.051000000000002 L 31 6 L 33 6 L 33 4.051 C 35.218880980876904 4.250858508729698 37.32394955136771 5.123028118644684 39.034 6.551 L 37.657 7.929 L 39.071 9.343 L 40.448 7.966 C 41.87633277133784 9.675927295785874 42.74885602111007 11.781007379402677 42.949 13.999999999999993 L 41 14 L 41 16 L 42.949 16 C 42.7491414912703 18.218880980876907 41.87697188135532 20.32394955136771 40.449 22.034 L 39.071999999999996 20.657 L 37.657999999999994 22.071 L 39.035 23.448 C 37.32479875142738 24.87651979867658 35.21934200809034 25.749054565053704 33 25.949 L 33 24 L 31 24 L 31 25.949 C 28.781119019123093 25.749141491270304 26.676050448632285 24.876971881355317 24.966 23.448999999999998 L 26.343 22.072000000000003 L 24.929 20.658 L 23.552 22.035 C 22.12348020132342 20.32479875142738 21.250945434946296 18.219342008090337 21.050999999999995 16 L 23 16 L 23 14 Z" stroke-linecap="round" />
</g>
		<g transform="matrix(1 0 0 1 -0.5 -19.35)" id="delivery-bike"  >
<path style="stroke: none; stroke-width: 1; stroke-dasharray: none; stroke-linecap: butt; stroke-dashoffset: 0; stroke-linejoin: miter; stroke-miterlimit: 4; fill: rgb(0,109,240); fill-rule: nonzero; opacity: 1;" vector-effect="non-scaling-stroke"  transform=" translate(-31.5, -12.65)" d="M 32 16 C 32.265194813478814 15.999943362594506 32.51950726864254 15.894549374810952 32.707 15.707 L 36.707 11.707 L 35.293 10.293000000000001 L 32 13.586 L 27.707 9.293 L 26.293 10.706999999999999 L 31.293 15.706999999999999 C 31.480492731357458 15.894549374810952 31.734805186521186 15.999943362594506 32 16 Z" stroke-linecap="round" />
</g>
		<g transform="matrix(1 0 0 1 -22 -22)" id="delivery-bike"  >
<rect style="stroke: none; stroke-width: 1; stroke-dasharray: none; stroke-linecap: butt; stroke-dashoffset: 0; stroke-linejoin: miter; stroke-miterlimit: 4; fill: rgb(0,109,240); fill-rule: nonzero; opacity: 1;" vector-effect="non-scaling-stroke"  x="-6" y="-1" rx="0" ry="0" width="12" height="2" />
</g>
		<g transform="matrix(1 0 0 1 -21 -17)" id="delivery-bike"  >
<rect style="stroke: none; stroke-width: 1; stroke-dasharray: none; stroke-linecap: butt; stroke-dashoffset: 0; stroke-linejoin: miter; stroke-miterlimit: 4; fill: rgb(0,109,240); fill-rule: nonzero; opacity: 1;" vector-effect="non-scaling-stroke"  x="-5" y="-1" rx="0" ry="0" width="10" height="2" />
</g>
		<g transform="matrix(1 0 0 1 -19.5 -12)" id="delivery-bike"  >
<rect style="stroke: none; stroke-width: 1; stroke-dasharray: none; stroke-linecap: butt; stroke-dashoffset: 0; stroke-linejoin: miter; stroke-miterlimit: 4; fill: rgb(0,109,240); fill-rule: nonzero; opacity: 1;" vector-effect="non-scaling-stroke"  x="-3.5" y="-1" rx="0" ry="0" width="7" height="2" />
</g>
</g>
</g>
<g transform="matrix(16.88 0 0 16.88 540 540)"  >
<g style=""   >
		<g transform="matrix(1 0 0 1 8 10)" id="delivery-bike"  >
<path style="stroke: none; stroke-width: 1; stroke-dasharray: none; stroke-linecap: butt; stroke-dashoffset: 0; stroke-linejoin: miter; stroke-miterlimit: 4; fill: rgb(120,185,235); fill-rule: nonzero; opacity: 1;" vector-effect="non-scaling-stroke"  transform=" translate(-40, -42)" d="M 48.41 29.41 C 48.7898588978177 29.03953880004171 49.002823066488496 28.530590532540316 49 28 C 48.99670519888792 26.896798133762427 48.10320186623757 26.003294801112073 47 26 L 46 26 L 46 25 C 46.00329480111208 23.896798133762427 46.896798133762424 23.003294801112077 48 23 L 56 23 L 56 31 L 46 31 L 46 30 L 47 30 C 47.530590532540316 30.002823066488496 48.03953880004171 29.789858897817698 48.41 29.41 z M 53 58 C 53.71416480071621 57.99926790896719 54.373747883910355 57.61778086540788 54.73051323255093 56.99911263077104 C 55.08727858119151 56.380444396134195 55.087082963208374 55.618484968229325 54.73 55 L 57.9 55 C 57.96888676157807 55.32881533472848 58.00241071981841 55.66405491713187 58 56 C 58 58.76142374915397 55.76142374915397 61 53 61 C 50.23857625084603 61 48 58.76142374915397 48 56 C 47.99758928018159 55.66405491713187 48.03111323842193 55.32881533472848 48.1 55 L 51.27 55 C 50.912917036791626 55.618484968229325 50.91272141880849 56.380444396134195 51.26948676744907 56.99911263077104 C 51.626252116089645 57.61778086540788 52.28583519928379 57.99926790896719 53 58 z M 61 52 L 61 55 L 32 55 L 32 51 C 32 47.68629150101524 29.31370849898476 45 26 45 L 36 45 L 36 51 L 43 51 C 45.20913899932317 51 47 49.20913899932317 47 47 L 47 31 L 51 31 L 53 46 L 55 46 C 58.31370849898476 46 61 48.68629150101524 61 52 z M 24 58 C 24.714164800716212 57.99926790896719 25.373747883910358 57.61778086540789 25.730513232550937 56.99911263077104 C 26.087278581191516 56.380444396134195 26.08708296320838 55.618484968229325 25.73 55 L 28.9 55 C 28.96888676157807 55.32881533472848 29.002410719818407 55.66405491713187 29 56 C 29 58.76142374915397 26.761423749153966 61 24 61 C 21.238576250846034 61 19 58.76142374915397 19 56 C 18.997589280181593 55.66405491713187 19.03111323842193 55.32881533472848 19.1 55 L 22.270000000000003 55 C 21.912917036791622 55.618484968229325 21.912721418808488 56.380444396134195 22.269486767449067 56.99911263077104 C 22.626252116089645 57.61778086540788 23.28583519928379 57.99926790896719 24 58 z" stroke-linecap="round" />
</g>
		<g transform="matrix(1 0 0 1 -7.5 4)" id="delivery-bike"  >
<path style="stroke: none; stroke-width: 1; stroke-dasharray: none; stroke-linecap: butt; stroke-dashoffset: 0; stroke-linejoin: miter; stroke-miterlimit: 4; fill: rgb(120,185,235); fill-rule: nonzero; opacity: 1;" vector-effect="non-scaling-stroke"  transform=" translate(-24.5, -36)" d="M 36.5 40 C 37.88071187457698 40 39 41.11928812542302 39 42.5 C 39 43.88071187457698 37.88071187457698 45 36.5 45 L 21 45 L 21 40 z M 10 39 L 14 39 L 14 41 C 14 41.5522847498308 13.552284749830793 42 13 42 L 11 42 C 10.447715250169207 42 10 41.5522847498308 10 41 z M 10 27 L 14 27 L 14 29 C 14 29.552284749830793 13.552284749830793 30 13 30 L 11 30 C 10.447715250169207 30 10 29.552284749830793 10 29 z" stroke-linecap="round" />
</g>
		<g transform="matrix(1 0 0 1 -16 9)" id="delivery-bike"  >
<path style="stroke: none; stroke-width: 1; stroke-dasharray: none; stroke-linecap: butt; stroke-dashoffset: 0; stroke-linejoin: miter; stroke-miterlimit: 4; fill: rgb(120,185,235); fill-rule: nonzero; opacity: 1;" vector-effect="non-scaling-stroke"  transform=" translate(-16, -41)" d="M 21 45 L 22 45 C 19.458002700766905 44.997196833230745 17.191947912965077 46.60148340866567 16.35 49 L 12 49 L 12 45 z M 10 33 L 14 33 L 14 35 C 14 35.5522847498308 13.552284749830793 36 13 36 L 11 36 C 10.447715250169207 36 10 35.5522847498308 10 35 z" stroke-linecap="round" />
</g>
		<g transform="matrix(1 0 0 1 0 10)" id="delivery-bike"  >
<path style="stroke: none; stroke-width: 1; stroke-dasharray: none; stroke-linecap: butt; stroke-dashoffset: 0; stroke-linejoin: miter; stroke-miterlimit: 4; fill: rgb(0,109,240); fill-rule: nonzero; opacity: 1;" vector-effect="non-scaling-stroke"  transform=" translate(-32, -42)" d="M 55 45 L 53.88 45 L 52.14 32 L 56 32 C 56.5522847498308 32 57 31.552284749830793 57 31 L 57 30.39 L 58.68 30.95 C 58.783875549537115 30.981233816861494 58.891547668843415 30.9980575855031 59 31 C 59.2090964925146 31.003017464307682 59.413217107198065 30.93615036639413 59.58 30.81 C 59.844416189103164 30.625261762320335 60.00137483362828 30.322555805021896 60 30 L 60 24 C 60.00137483362828 23.677444194978104 59.844416189103164 23.374738237679665 59.58 23.19 C 59.31989928494124 23.001488319431072 58.98507298539756 22.94940422839094 58.68 23.05 L 57 23.61 L 57 23 C 57 22.447715250169207 56.5522847498308 22 56 22 L 48 22 C 46.34519720064364 22.004942201668115 45.00494220166811 23.345197200643643 45 25.000000000000004 L 41 25 C 40.4477152501692 25 40 25.447715250169207 40 26 L 40 30 C 40 30.552284749830793 40.4477152501692 31 41 31 L 45 31 C 45 31.552284749830793 45.4477152501692 32 46 32 L 46 47 C 45.995057798331885 48.65480279935636 44.65480279935636 49.995057798331885 43 50 L 37 50 L 37 45.95 C 38.818909670613316 45.69441606374785 40.12889525814191 44.073439773614226 39.99709355837681 42.24139614687937 C 39.86529185861171 40.40935252014451 38.33676361266873 38.992585858318186 36.5 39 L 22 39 L 22 27 C 22 26.447715250169207 21.552284749830793 26 21 26 L 3 26 C 2.4477152501692068 26 2 26.447715250169207 2 27 L 2 45 C 2 45.5522847498308 2.4477152501692068 46 3 46 L 11 46 L 11 49 C 11 49.5522847498308 11.447715250169207 50 12 50 L 15.08 50 C 15.028132061794636 50.330836399833885 15.001388951284351 50.66512528121243 15 51 L 15 55 C 15 55.5522847498308 15.447715250169207 56 16 56 L 18 56 C 18 59.31370849898476 20.68629150101524 62 24 62 C 27.31370849898476 62 30 59.31370849898476 30 56 L 47 56 C 47 59.31370849898476 49.68629150101524 62 53 62 C 56.31370849898476 62 59 59.31370849898476 59 56 L 61 56 C 61.5522847498308 56 62 55.5522847498308 62 55 L 62 52 C 61.99559136402768 48.13583434119646 58.86416565880354 45.00440863597232 55 45 Z M 57 25.72 L 58 25.39 L 58 28.61 L 57 28.28 Z M 48 24 L 55 24 L 55 30 L 49.22 30 C 49.71993329405038 29.4536942932532 49.99806873427898 28.74052649779525 50 28 C 49.995057798331885 26.34519720064364 48.65480279935636 25.00494220166811 47 25 C 47 24.447715250169207 47.4477152501692 24 48 24 Z M 42 29 L 42 27 L 47 27 C 47.5522847498308 27 48 27.447715250169207 48 28 C 48 28.552284749830793 47.5522847498308 29 47 29 Z M 22 41 L 36.5 41 C 37.32842712474619 41 38 41.67157287525381 38 42.5 C 38 43.32842712474619 37.32842712474619 44 36.5 44 L 22 44 Z M 11 28 L 13 28 L 13 29 L 11 29 Z M 4 28 L 9 28 L 9 29 C 9.003294801112075 30.103201866237573 9.896798133762427 30.996705198887927 11 31 L 13 31 C 14.103201866237573 30.996705198887927 14.996705198887925 30.103201866237573 15 29 L 15 28 L 20 28 L 20 32 L 4 32 Z M 13 34 L 13 35 L 11 35 L 11 34 Z M 4 34 L 9 34 L 9 35 C 9.003294801112075 36.103201866237576 9.896798133762427 36.99670519888792 11 37 L 13 37 C 14.103201866237573 36.99670519888792 14.996705198887925 36.103201866237576 15 35 L 15 34 L 20 34 L 20 38 L 4 38 Z M 13 40 L 13 41 L 11 41 L 11 40 Z M 4 44 L 4 40 L 9 40 L 9 41 C 9.003294801112075 42.103201866237576 9.896798133762427 42.99670519888792 11 43 L 13 43 C 14.103201866237573 42.99670519888792 14.996705198887925 42.103201866237576 15 41 L 15 40 L 20 40 L 20 44 Z M 15.68 48 L 13 48 L 13 46 L 17.11 46 C 16.51842627372426 46.57652553515356 16.03420606938686 47.253756590170894 15.68 48 Z M 24 60 C 21.790861000676827 60 20 58.20913899932317 20 56 L 21 56 C 21 57.65685424949238 22.34314575050762 59 24 59 C 25.65685424949238 59 27 57.65685424949238 27 56 L 28 56 C 28 58.20913899932317 26.209138999323173 60 24 60 Z M 23 56 L 25 56 C 25 56.5522847498308 24.552284749830793 57 24 57 C 23.447715250169207 57 23 56.5522847498308 23 56 Z M 31 54 L 17 54 L 17 51 C 17 48.23857625084603 19.238576250846034 46 22 46 L 26 46 C 28.761423749153966 46 31 48.23857625084603 31 51 Z M 53 60 C 50.79086100067683 60 49 58.20913899932317 49 56 L 50 56 C 50 57.65685424949238 51.34314575050762 59 53 59 C 54.65685424949238 59 56 57.65685424949238 56 56 L 57 56 C 57 58.20913899932317 55.20913899932317 60 53 60 Z M 52 56 L 54 56 C 54 56.5522847498308 53.5522847498308 57 53 57 C 52.4477152501692 57 52 56.5522847498308 52 56 Z M 60 54 L 33 54 L 33 51 C 33.001045789856164 49.116718317053575 32.23994558267679 47.31316332373752 30.89 46 L 35 46 L 35 51 C 35 51.5522847498308 35.4477152501692 52 36 52 L 43 52 C 45.76142374915397 52 48 49.76142374915397 48 47 L 48 32 L 50.12 32 L 52.01 46.13 C 52.075188881924305 46.627202064770195 52.49854321518789 46.99924072127455 53 47 L 55 47 C 57.76142374915397 47 60 49.23857625084603 60 52 Z" stroke-linecap="round" />
</g>
		<g transform="matrix(1 0 0 1 -8 17)" id="delivery-bike"  >
<rect style="stroke: none; stroke-width: 1; stroke-dasharray: none; stroke-linecap: butt; stroke-dashoffset: 0; stroke-linejoin: miter; stroke-miterlimit: 4; fill: rgb(0,109,240); fill-rule: nonzero; opacity: 1;" vector-effect="non-scaling-stroke"  x="-3" y="-1" rx="0" ry="0" width="6" height="2" />
</g>
		<g transform="matrix(1 0 0 1 -8 20)" id="delivery-bike"  >
<rect style="stroke: none; stroke-width: 1; stroke-dasharray: none; stroke-linecap: butt; stroke-dashoffset: 0; stroke-linejoin: miter; stroke-miterlimit: 4; fill: rgb(0,109,240); fill-rule: nonzero; opacity: 1;" vector-effect="non-scaling-stroke"  x="-3" y="-1" rx="0" ry="0" width="6" height="2" />
</g>
		<g transform="matrix(1 0 0 1 0 -17)" id="delivery-bike"  >
<path style="stroke: none; stroke-width: 1; stroke-dasharray: none; stroke-linecap: butt; stroke-dashoffset: 0; stroke-linejoin: miter; stroke-miterlimit: 4; fill: rgb(0,109,240); fill-rule: nonzero; opacity: 1;" vector-effect="non-scaling-stroke"  transform=" translate(-32, -15)" d="M 32 28 C 39.179701747800316 28 45 22.179701747800316 45 15 C 45 7.820298252199684 39.179701747800316 2 32 2 C 24.820298252199684 2 19 7.820298252199684 19 14.999999999999998 C 19.008266019044065 22.176275061898345 24.82372493810165 27.991733980955928 31.999999999999993 28 Z M 21.051 14 C 21.250858508729696 11.781119019123093 22.123028118644683 9.676050448632285 23.551 7.966 L 24.927999999999997 9.343 L 26.342 7.929 L 24.966 6.552 C 26.675927295785876 5.123667228662157 28.78100737940268 4.251143978889928 30.999999999999996 4.051000000000002 L 31 6 L 33 6 L 33 4.051 C 35.218880980876904 4.250858508729698 37.32394955136771 5.123028118644684 39.034 6.551 L 37.657 7.929 L 39.071 9.343 L 40.448 7.966 C 41.87633277133784 9.675927295785874 42.74885602111007 11.781007379402677 42.949 13.999999999999993 L 41 14 L 41 16 L 42.949 16 C 42.7491414912703 18.218880980876907 41.87697188135532 20.32394955136771 40.449 22.034 L 39.071999999999996 20.657 L 37.657999999999994 22.071 L 39.035 23.448 C 37.32479875142738 24.87651979867658 35.21934200809034 25.749054565053704 33 25.949 L 33 24 L 31 24 L 31 25.949 C 28.781119019123093 25.749141491270304 26.676050448632285 24.876971881355317 24.966 23.448999999999998 L 26.343 22.072000000000003 L 24.929 20.658 L 23.552 22.035 C 22.12348020132342 20.32479875142738 21.250945434946296 18.219342008090337 21.050999999999995 16 L 23 16 L 23 14 Z" stroke-linecap="round" />
</g>
		<g transform="matrix(1 0 0 1 -0.5 -19.35)" id="delivery-bike"  >
<path style="stroke: none; stroke-width: 1; stroke-dasharray: none; stroke-linecap: butt; stroke-dashoffset: 0; stroke-linejoin: miter; stroke-miterlimit: 4; fill: rgb(0,109,240); fill-rule: nonzero; opacity: 1;" vector-effect="non-scaling-stroke"  transform=" translate(-31.5, -12.65)" d="M 32 16 C 32.265194813478814 15.999943362594506 32.51950726864254 15.894549374810952 32.707 15.707 L 36.707 11.707 L 35.293 10.293000000000001 L 32 13.586 L 27.707 9.293 L 26.293 10.706999999999999 L 31.293 15.706999999999999 C 31.480492731357458 15.894549374810952 31.734805186521186 15.999943362594506 32 16 Z" stroke-linecap="round" />
</g>
		<g transform="matrix(1 0 0 1 -22 -22)" id="delivery-bike"  >
<rect style="stroke: none; stroke-width: 1; stroke-dasharray: none; stroke-linecap: butt; stroke-dashoffset: 0; stroke-linejoin: miter; stroke-miterlimit: 4; fill: rgb(0,109,240); fill-rule: nonzero; opacity: 1;" vector-effect="non-scaling-stroke"  x="-6" y="-1" rx="0" ry="0" width="12" height="2" />
</g>
		<g transform="matrix(1 0 0 1 -21 -17)" id="delivery-bike"  >
<rect style="stroke: none; stroke-width: 1; stroke-dasharray: none; stroke-linecap: butt; stroke-dashoffset: 0; stroke-linejoin: miter; stroke-miterlimit: 4; fill: rgb(0,109,240); fill-rule: nonzero; opacity: 1;" vector-effect="non-scaling-stroke"  x="-5" y="-1" rx="0" ry="0" width="10" height="2" />
</g>
		<g transform="matrix(1 0 0 1 -19.5 -12)" id="delivery-bike"  >
<rect style="stroke: none; stroke-width: 1; stroke-dasharray: none; stroke-linecap: butt; stroke-dashoffset: 0; stroke-linejoin: miter; stroke-miterlimit: 4; fill: rgb(0,109,240); fill-rule: nonzero; opacity: 1;" vector-effect="non-scaling-stroke"  x="-3.5" y="-1" rx="0" ry="0" width="7" height="2" />
</g>
</g>
</g>
<g transform="matrix(16.88 0 0 16.88 540 540)"  >
<g style=""   >
		<g transform="matrix(1 0 0 1 8 10)" id="delivery-bike"  >
<path style="stroke: none; stroke-width: 1; stroke-dasharray: none; stroke-linecap: butt; stroke-dashoffset: 0; stroke-linejoin: miter; stroke-miterlimit: 4; fill: rgb(120,185,235); fill-rule: nonzero; opacity: 1;" vector-effect="non-scaling-stroke"  transform=" translate(-40, -42)" d="M 48.41 29.41 C 48.7898588978177 29.03953880004171 49.002823066488496 28.530590532540316 49 28 C 48.99670519888792 26.896798133762427 48.10320186623757 26.003294801112073 47 26 L 46 26 L 46 25 C 46.00329480111208 23.896798133762427 46.896798133762424 23.003294801112077 48 23 L 56 23 L 56 31 L 46 31 L 46 30 L 47 30 C 47.530590532540316 30.002823066488496 48.03953880004171 29.789858897817698 48.41 29.41 z M 53 58 C 53.71416480071621 57.99926790896719 54.373747883910355 57.61778086540788 54.73051323255093 56.99911263077104 C 55.08727858119151 56.380444396134195 55.087082963208374 55.618484968229325 54.73 55 L 57.9 55 C 57.96888676157807 55.32881533472848 58.00241071981841 55.66405491713187 58 56 C 58 58.76142374915397 55.76142374915397 61 53 61 C 50.23857625084603 61 48 58.76142374915397 48 56 C 47.99758928018159 55.66405491713187 48.03111323842193 55.32881533472848 48.1 55 L 51.27 55 C 50.912917036791626 55.618484968229325 50.91272141880849 56.380444396134195 51.26948676744907 56.99911263077104 C 51.626252116089645 57.61778086540788 52.28583519928379 57.99926790896719 53 58 z M 61 52 L 61 55 L 32 55 L 32 51 C 32 47.68629150101524 29.31370849898476 45 26 45 L 36 45 L 36 51 L 43 51 C 45.20913899932317 51 47 49.20913899932317 47 47 L 47 31 L 51 31 L 53 46 L 55 46 C 58.31370849898476 46 61 48.68629150101524 61 52 z M 24 58 C 24.714164800716212 57.99926790896719 25.373747883910358 57.61778086540789 25.730513232550937 56.99911263077104 C 26.087278581191516 56.380444396134195 26.08708296320838 55.618484968229325 25.73 55 L 28.9 55 C 28.96888676157807 55.32881533472848 29.002410719818407 55.66405491713187 29 56 C 29 58.76142374915397 26.761423749153966 61 24 61 C 21.238576250846034 61 19 58.76142374915397 19 56 C 18.997589280181593 55.66405491713187 19.03111323842193 55.32881533472848 19.1 55 L 22.270000000000003 55 C 21.912917036791622 55.618484968229325 21.912721418808488 56.380444396134195 22.269486767449067 56.99911263077104 C 22.626252116089645 57.61778086540788 23.28583519928379 57.99926790896719 24 58 z" stroke-linecap="round" />
</g>
		<g transform="matrix(1 0 0 1 -7.5 4)" id="delivery-bike"  >
<path style="stroke: none; stroke-width: 1; stroke-dasharray: none; stroke-linecap: butt; stroke-dashoffset: 0; stroke-linejoin: miter; stroke-miterlimit: 4; fill: rgb(120,185,235); fill-rule: nonzero; opacity: 1;" vector-effect="non-scaling-stroke"  transform=" translate(-24.5, -36)" d="M 36.5 40 C 37.88071187457698 40 39 41.11928812542302 39 42.5 C 39 43.88071187457698 37.88071187457698 45 36.5 45 L 21 45 L 21 40 z M 10 39 L 14 39 L 14 41 C 14 41.5522847498308 13.552284749830793 42 13 42 L 11 42 C 10.447715250169207 42 10 41.5522847498308 10 41 z M 10 27 L 14 27 L 14 29 C 14 29.552284749830793 13.552284749830793 30 13 30 L 11 30 C 10.447715250169207 30 10 29.552284749830793 10 29 z" stroke-linecap="round" />
</g>
		<g transform="matrix(1 0 0 1 -16 9)" id="delivery-bike"  >
<path style="stroke: none; stroke-width: 1; stroke-dasharray: none; stroke-linecap: butt; stroke-dashoffset: 0; stroke-linejoin: miter; stroke-miterlimit: 4; fill: rgb(120,185,235); fill-rule: nonzero; opacity: 1;" vector-effect="non-scaling-stroke"  transform=" translate(-16, -41)" d="M 21 45 L 22 45 C 19.458002700766905 44.997196833230745 17.191947912965077 46.60148340866567 16.35 49 L 12 49 L 12 45 z M 10 33 L 14 33 L 14 35 C 14 35.5522847498308 13.552284749830793 36 13 36 L 11 36 C 10.447715250169207 36 10 35.5522847498308 10 35 z" stroke-linecap="round" />
</g>
		<g transform="matrix(1 0 0 1 0 10)" id="delivery-bike"  >
<path style="stroke: none; stroke-width: 1; stroke-dasharray: none; stroke-linecap: butt; stroke-dashoffset: 0; stroke-linejoin: miter; stroke-miterlimit: 4; fill: rgb(0,109,240); fill-rule: nonzero; opacity: 1;" vector-effect="non-scaling-stroke"  transform=" translate(-32, -42)" d="M 55 45 L 53.88 45 L 52.14 32 L 56 32 C 56.5522847498308 32 57 31.552284749830793 57 31 L 57 30.39 L 58.68 30.95 C 58.783875549537115 30.981233816861494 58.891547668843415 30.9980575855031 59 31 C 59.2090964925146 31.003017464307682 59.413217107198065 30.93615036639413 59.58 30.81 C 59.844416189103164 30.625261762320335 60.00137483362828 30.322555805021896 60 30 L 60 24 C 60.00137483362828 23.677444194978104 59.844416189103164 23.374738237679665 59.58 23.19 C 59.31989928494124 23.001488319431072 58.98507298539756 22.94940422839094 58.68 23.05 L 57 23.61 L 57 23 C 57 22.447715250169207 56.5522847498308 22 56 22 L 48 22 C 46.34519720064364 22.004942201668115 45.00494220166811 23.345197200643643 45 25.000000000000004 L 41 25 C 40.4477152501692 25 40 25.447715250169207 40 26 L 40 30 C 40 30.552284749830793 40.4477152501692 31 41 31 L 45 31 C 45 31.552284749830793 45.4477152501692 32 46 32 L 46 47 C 45.995057798331885 48.65480279935636 44.65480279935636 49.995057798331885 43 50 L 37 50 L 37 45.95 C 38.818909670613316 45.69441606374785 40.12889525814191 44.073439773614226 39.99709355837681 42.24139614687937 C 39.86529185861171 40.40935252014451 38.33676361266873 38.992585858318186 36.5 39 L 22 39 L 22 27 C 22 26.447715250169207 21.552284749830793 26 21 26 L 3 26 C 2.4477152501692068 26 2 26.447715250169207 2 27 L 2 45 C 2 45.5522847498308 2.4477152501692068 46 3 46 L 11 46 L 11 49 C 11 49.5522847498308 11.447715250169207 50 12 50 L 15.08 50 C 15.028132061794636 50.330836399833885 15.001388951284351 50.66512528121243 15 51 L 15 55 C 15 55.5522847498308 15.447715250169207 56 16 56 L 18 56 C 18 59.31370849898476 20.68629150101524 62 24 62 C 27.31370849898476 62 30 59.31370849898476 30 56 L 47 56 C 47 59.31370849898476 49.68629150101524 62 53 62 C 56.31370849898476 62 59 59.31370849898476 59 56 L 61 56 C 61.5522847498308 56 62 55.5522847498308 62 55 L 62 52 C 61.99559136402768 48.13583434119646 58.86416565880354 45.00440863597232 55 45 Z M 57 25.72 L 58 25.39 L 58 28.61 L 57 28.28 Z M 48 24 L 55 24 L 55 30 L 49.22 30 C 49.71993329405038 29.4536942932532 49.99806873427898 28.74052649779525 50 28 C 49.995057798331885 26.34519720064364 48.65480279935636 25.00494220166811 47 25 C 47 24.447715250169207 47.4477152501692 24 48 24 Z M 42 29 L 42 27 L 47 27 C 47.5522847498308 27 48 27.447715250169207 48 28 C 48 28.552284749830793 47.5522847498308 29 47 29 Z M 22 41 L 36.5 41 C 37.32842712474619 41 38 41.67157287525381 38 42.5 C 38 43.32842712474619 37.32842712474619 44 36.5 44 L 22 44 Z M 11 28 L 13 28 L 13 29 L 11 29 Z M 4 28 L 9 28 L 9 29 C 9.003294801112075 30.103201866237573 9.896798133762427 30.996705198887927 11 31 L 13 31 C 14.103201866237573 30.996705198887927 14.996705198887925 30.103201866237573 15 29 L 15 28 L 20 28 L 20 32 L 4 32 Z M 13 34 L 13 35 L 11 35 L 11 34 Z M 4 34 L 9 34 L 9 35 C 9.003294801112075 36.103201866237576 9.896798133762427 36.99670519888792 11 37 L 13 37 C 14.103201866237573 36.99670519888792 14.996705198887925 36.103201866237576 15 35 L 15 34 L 20 34 L 20 38 L 4 38 Z M 13 40 L 13 41 L 11 41 L 11 40 Z M 4 44 L 4 40 L 9 40 L 9 41 C 9.003294801112075 42.103201866237576 9.896798133762427 42.99670519888792 11 43 L 13 43 C 14.103201866237573 42.99670519888792 14.996705198887925 42.103201866237576 15 41 L 15 40 L 20 40 L 20 44 Z M 15.68 48 L 13 48 L 13 46 L 17.11 46 C 16.51842627372426 46.57652553515356 16.03420606938686 47.253756590170894 15.68 48 Z M 24 60 C 21.790861000676827 60 20 58.20913899932317 20 56 L 21 56 C 21 57.65685424949238 22.34314575050762 59 24 59 C 25.65685424949238 59 27 57.65685424949238 27 56 L 28 56 C 28 58.20913899932317 26.209138999323173 60 24 60 Z M 23 56 L 25 56 C 25 56.5522847498308 24.552284749830793 57 24 57 C 23.447715250169207 57 23 56.5522847498308 23 56 Z M 31 54 L 17 54 L 17 51 C 17 48.23857625084603 19.238576250846034 46 22 46 L 26 46 C 28.761423749153966 46 31 48.23857625084603 31 51 Z M 53 60 C 50.79086100067683 60 49 58.20913899932317 49 56 L 50 56 C 50 57.65685424949238 51.34314575050762 59 53 59 C 54.65685424949238 59 56 57.65685424949238 56 56 L 57 56 C 57 58.20913899932317 55.20913899932317 60 53 60 Z M 52 56 L 54 56 C 54 56.5522847498308 53.5522847498308 57 53 57 C 52.4477152501692 57 52 56.5522847498308 52 56 Z M 60 54 L 33 54 L 33 51 C 33.001045789856164 49.116718317053575 32.23994558267679 47.31316332373752 30.89 46 L 35 46 L 35 51 C 35 51.5522847498308 35.4477152501692 52 36 52 L 43 52 C 45.76142374915397 52 48 49.76142374915397 48 47 L 48 32 L 50.12 32 L 52.01 46.13 C 52.075188881924305 46.627202064770195 52.49854321518789 46.99924072127455 53 47 L 55 47 C 57.76142374915397 47 60 49.23857625084603 60 52 Z" stroke-linecap="round" />
</g>
		<g transform="matrix(1 0 0 1 -8 17)" id="delivery-bike"  >
<rect style="stroke: none; stroke-width: 1; stroke-dasharray: none; stroke-linecap: butt; stroke-dashoffset: 0; stroke-linejoin: miter; stroke-miterlimit: 4; fill: rgb(0,109,240); fill-rule: nonzero; opacity: 1;" vector-effect="non-scaling-stroke"  x="-3" y="-1" rx="0" ry="0" width="6" height="2" />
</g>
		<g transform="matrix(1 0 0 1 -8 20)" id="delivery-bike"  >
<rect style="stroke: none; stroke-width: 1; stroke-dasharray: none; stroke-linecap: butt; stroke-dashoffset: 0; stroke-linejoin: miter; stroke-miterlimit: 4; fill: rgb(0,109,240); fill-rule: nonzero; opacity: 1;" vector-effect="non-scaling-stroke"  x="-3" y="-1" rx="0" ry="0" width="6" height="2" />
</g>
		<g transform="matrix(1 0 0 1 0 -17)" id="delivery-bike"  >
<path style="stroke: none; stroke-width: 1; stroke-dasharray: none; stroke-linecap: butt; stroke-dashoffset: 0; stroke-linejoin: miter; stroke-miterlimit: 4; fill: rgb(0,109,240); fill-rule: nonzero; opacity: 1;" vector-effect="non-scaling-stroke"  transform=" translate(-32, -15)" d="M 32 28 C 39.179701747800316 28 45 22.179701747800316 45 15 C 45 7.820298252199684 39.179701747800316 2 32 2 C 24.820298252199684 2 19 7.820298252199684 19 14.999999999999998 C 19.008266019044065 22.176275061898345 24.82372493810165 27.991733980955928 31.999999999999993 28 Z M 21.051 14 C 21.250858508729696 11.781119019123093 22.123028118644683 9.676050448632285 23.551 7.966 L 24.927999999999997 9.343 L 26.342 7.929 L 24.966 6.552 C 26.675927295785876 5.123667228662157 28.78100737940268 4.251143978889928 30.999999999999996 4.051000000000002 L 31 6 L 33 6 L 33 4.051 C 35.218880980876904 4.250858508729698 37.32394955136771 5.123028118644684 39.034 6.551 L 37.657 7.929 L 39.071 9.343 L 40.448 7.966 C 41.87633277133784 9.675927295785874 42.74885602111007 11.781007379402677 42.949 13.999999999999993 L 41 14 L 41 16 L 42.949 16 C 42.7491414912703 18.218880980876907 41.87697188135532 20.32394955136771 40.449 22.034 L 39.071999999999996 20.657 L 37.657999999999994 22.071 L 39.035 23.448 C 37.32479875142738 24.87651979867658 35.21934200809034 25.749054565053704 33 25.949 L 33 24 L 31 24 L 31 25.949 C 28.781119019123093 25.749141491270304 26.676050448632285 24.876971881355317 24.966 23.448999999999998 L 26.343 22.072000000000003 L 24.929 20.658 L 23.552 22.035 C 22.12348020132342 20.32479875142738 21.250945434946296 18.219342008090337 21.050999999999995 16 L 23 16 L 23 14 Z" stroke-linecap="round" />
</g>
		<g transform="matrix(1 0 0 1 -0.5 -19.35)" id="delivery-bike"  >
<path style="stroke: none; stroke-width: 1; stroke-dasharray: none; stroke-linecap: butt; stroke-dashoffset: 0; stroke-linejoin: miter; stroke-miterlimit: 4; fill: rgb(0,109,240); fill-rule: nonzero; opacity: 1;" vector-effect="non-scaling-stroke"  transform=" translate(-31.5, -12.65)" d="M 32 16 C 32.265194813478814 15.999943362594506 32.51950726864254 15.894549374810952 32.707 15.707 L 36.707 11.707 L 35.293 10.293000000000001 L 32 13.586 L 27.707 9.293 L 26.293 10.706999999999999 L 31.293 15.706999999999999 C 31.480492731357458 15.894549374810952 31.734805186521186 15.999943362594506 32 16 Z" stroke-linecap="round" />
</g>
		<g transform="matrix(1 0 0 1 -22 -22)" id="delivery-bike"  >
<rect style="stroke: none; stroke-width: 1; stroke-dasharray: none; stroke-linecap: butt; stroke-dashoffset: 0; stroke-linejoin: miter; stroke-miterlimit: 4; fill: rgb(0,109,240); fill-rule: nonzero; opacity: 1;" vector-effect="non-scaling-stroke"  x="-6" y="-1" rx="0" ry="0" width="12" height="2" />
</g>
		<g transform="matrix(1 0 0 1 -21 -17)" id="delivery-bike"  >
<rect style="stroke: none; stroke-width: 1; stroke-dasharray: none; stroke-linecap: butt; stroke-dashoffset: 0; stroke-linejoin: miter; stroke-miterlimit: 4; fill: rgb(0,109,240); fill-rule: nonzero; opacity: 1;" vector-effect="non-scaling-stroke"  x="-5" y="-1" rx="0" ry="0" width="10" height="2" />
</g>
		<g transform="matrix(1 0 0 1 -19.5 -12)" id="delivery-bike"  >
<rect style="stroke: none; stroke-width: 1; stroke-dasharray: none; stroke-linecap: butt; stroke-dashoffset: 0; stroke-linejoin: miter; stroke-miterlimit: 4; fill: rgb(0,109,240); fill-rule: nonzero; opacity: 1;" vector-effect="non-scaling-stroke"  x="-3.5" y="-1" rx="0" ry="0" width="7" height="2" />
</g>
</g>
</g>
<g transform="matrix(6 0 0 6 540 253.7)" id="6b197889-3014-4d16-8cb3-028967307fc1"  >
<path style="stroke: rgb(255,0,0); stroke-width: 0; stroke-dasharray: none; stroke-linecap: butt; stroke-dashoffset: 0; stroke-linejoin: miter; stroke-miterlimit: 4; fill: rgb(255,77,77); fill-rule: nonzero; opacity: 1;" vector-effect="non-scaling-stroke"  transform=" translate(-50, -50)" d="M 49.975 12.826 C 70.509 12.826 87.174 29.492 87.174 50.025 C 87.174 70.509 70.50900000000001 87.174 49.97500000000001 87.174 C 29.492000000000008 87.174 12.826000000000008 70.50900000000001 12.826000000000008 50.025000000000006 C 12.826 29.492 29.492 12.826 49.975 12.826 z M 70.924 34.444 L 55.343 50.025 L 70.924 65.55499999999999 C 74.174 61.22099999999999 76.08200000000001 55.85499999999999 76.08200000000001 50.02499999999999 C 76.082 44.195 74.174 38.777 70.924 34.444 z M 65.557 70.973 L 49.975 55.391 L 34.447 70.92099999999999 C 38.78 74.172 44.145 76.08099999999999 49.975 76.08099999999999 C 55.806 76.081 61.223 74.172 65.557 70.973 z M 29.079 65.555 L 44.611000000000004 50.025000000000006 L 29.079 34.444 C 25.830000000000002 38.777 23.921 44.195 23.921 50.025000000000006 C 23.921 55.854 25.83 61.221 29.079 65.555 z M 34.394 29.078 L 49.974999999999994 44.661 L 65.55699999999999 29.078000000000003 C 61.222999999999985 25.828000000000003 55.80599999999999 23.92 49.97499999999999 23.92 C 44.145 23.919 38.781 25.828 34.394 29.078 z" stroke-linecap="round" />
</g>
</svg>